<?xml version="1.0" encoding="utf-8"?>
<!-- Generator: Adobe Illustrator 27.0.0, SVG Export Plug-In . SVG Version: 6.00 Build 0)  -->
<svg version="1.1" id="图层_1" xmlns="http://www.w3.org/2000/svg" xmlns:xlink="http://www.w3.org/1999/xlink" x="0px" y="0px"
	 viewBox="0 0 48 48" style="enable-background:new 0 0 48 48;" xml:space="preserve">
<style type="text/css">
	.st0{fill:#606DD4;}
	.st1{fill:#FFFFFF;}
</style>
<g>
	<path class="st0" d="M36,48H12C5.4,48,0,42.6,0,36V12C0,5.4,5.4,0,12,0h24c6.6,0,12,5.4,12,12v24C48,42.6,42.6,48,36,48z"/>
</g>
<g>
	<path class="st1" d="M23,30.7c0-4.4,3.5-7.9,7.9-7.9c1.2,0,2.3,0.3,3.4,0.8v-2.6c0-1.3-0.6-2.5-1.7-3.2L24.8,12c-1.4-1-3.3-1-4.7,0
		l-7.9,5.7c-1,0.8-1.7,2-1.7,3.2v9.4c0,2.2,1.8,4,4,4h9.4C23.3,33.3,23,32,23,30.7z"/>
	<path class="st1" d="M30.9,24.1c-3.6,0-6.6,2.9-6.6,6.6c0,3.6,2.9,6.6,6.6,6.6c3.6,0,6.6-2.9,6.6-6.6
		C37.5,27.1,34.5,24.1,30.9,24.1z M33.1,33.5c-0.3,0.4-0.8,0.6-1.4,0.7v0.9c-0.1,0-0.2,0-0.3,0.1c-0.1,0-0.3,0-0.4,0
		c-0.3,0-0.5-0.1-0.6-0.2c-0.1-0.1-0.2-0.3-0.2-0.6v-0.2c-0.5-0.1-1-0.2-1.3-0.4c-0.3-0.2-0.5-0.5-0.5-0.8c0-0.2,0.1-0.4,0.2-0.5
		c0.1-0.1,0.2-0.2,0.4-0.3c0.2,0.2,0.5,0.3,0.8,0.4c0.3,0.1,0.7,0.2,1,0.2c0.4,0,0.7-0.1,0.9-0.2c0.2-0.1,0.3-0.3,0.3-0.5
		c0-0.2-0.1-0.3-0.2-0.4c-0.1-0.1-0.3-0.2-0.6-0.3l-0.6-0.2c-0.3-0.1-0.6-0.2-0.9-0.3c-0.3-0.1-0.5-0.3-0.7-0.4
		c-0.2-0.2-0.3-0.4-0.4-0.6s-0.2-0.5-0.2-0.8c0-0.5,0.2-0.9,0.5-1.3c0.3-0.3,0.8-0.6,1.4-0.7v-0.9c0.1,0,0.2,0,0.3-0.1
		c0.1,0,0.3,0,0.4,0c0.3,0,0.5,0.1,0.6,0.2c0.1,0.1,0.2,0.3,0.2,0.6v0.2c0.5,0.1,0.9,0.2,1.2,0.4c0.3,0.2,0.4,0.4,0.4,0.7
		c0,0.2,0,0.3-0.1,0.5s-0.2,0.2-0.3,0.3c-0.2-0.1-0.4-0.2-0.7-0.3c-0.3-0.1-0.6-0.1-0.9-0.1c-0.4,0-0.6,0.1-0.8,0.2
		c-0.2,0.1-0.3,0.3-0.3,0.4c0,0.2,0.1,0.3,0.2,0.3s0.3,0.2,0.5,0.2l0.6,0.2c0.4,0.1,0.7,0.3,0.9,0.4c0.3,0.1,0.5,0.3,0.7,0.5
		c0.2,0.2,0.3,0.4,0.4,0.6c0.1,0.2,0.1,0.5,0.1,0.8C33.6,32.7,33.4,33.1,33.1,33.5z"/>
</g>
</svg>
